#!OML:ASF F:\VICON\USERDATA\INSTALL\rory3\rory3.ASF
:FULLY-SPECIFIED
:DEGREES
116
root 0.414159 17.4103 30.4906 1.62853 -8.35939 -2.07365
lowerback 18.2864 -0.889906 0.492629
upperback 1.82116 -1.01926 0.717732
thorax -8.28279 -0.497861 0.749549
lowerneck -3.68927 2.28085 -0.954639
upperneck -11.8388 2.91706 -1.45531
head -3.14091 1.52588 -0.353299
rclavicle -2.60905e-015 1.19271e-014
rhumerus -42.8437 7.6183 -77.9366
rradius 82.3893
rwrist -3.80271
rhand -32.7224 29.6648
rfingers 7.12502
rthumb -5.94619 -0.231772
lclavicle -2.60905e-015 1.19271e-014
lhumerus -43.4152 -13.3552 91.3585
lradius 101.451
lwrist 21.2135
lhand -31.741 9.22187
lfingers 7.12502
lthumb -4.99863 39.1429
rfemur -23.7471 5.92529 26.5736
rtibia 37.9416
rfoot -8.79811 -2.79174
rtoes 5.72858
lfemur 4.13219 14.0616 -15.2101
ltibia 102.98
lfoot 22.7014 0.264885
ltoes -1.44696
117
root 0.417057 17.3055 30.9838 2.44422 -8.80587 -3.80366
lowerback 16.8108 -0.845311 2.06322
upperback 2.55535 -0.66224 1.26877
thorax -6.69447 -0.362558 0.329505
lowerneck -3.85096 2.44706 -0.758295
upperneck -13.1868 3.05426 -2.1397
head -3.56745 1.61503 -0.627418
rclavicle -1.90585e-014 1.78906e-015
rhumerus -39.1162 8.14573 -77.865
rradius 83.5628
rwrist -3.96189
rhand -32.6316 29.7516
rfingers 7.12502
rthumb -5.85857 -0.147375
lclavicle -1.90585e-014 1.78906e-015
lhumerus -43.2608 -11.8866 91.0069
lradius 100.78
lwrist 22.3816
lhand -31.9223 9.52137
lfingers 7.12502
lthumb -5.17374 39.4382
rfemur -23.433 6.30058 28.4827
rtibia 39.8594
rfoot -11.1291 -3.62204
rtoes 4.79287
lfemur 0.930876 15.4018 -11.9966
ltibia 107.507
lfoot 21.6042 -2.35269
ltoes 1.12721
118
root 0.420839 17.2188 31.464 2.58772 -9.38149 -6.71884
lowerback 17.8465 -0.88623 4.58286
upperback 2.4964 -0.131326 2.15102
thorax -7.32085 -0.1672 -0.260762
lowerneck -3.40648 2.68703 -0.329866
upperneck -13.7928 3.27631 -2.94718
head -3.84327 1.74045 -0.99002
rclavicle -4.96962e-017 5.86415e-015
rhumerus -37.0757 9.06887 -78.0049
rradius 85.0484
rwrist -4.1916
rhand -32.2645 29.9605
rfingers 7.12502
rthumb -5.50407 0.0519497
lclavicle -4.96962e-017 5.86415e-015
lhumerus -44.6731 -10.187 91.0116
lradius 99.9627
lwrist 22.7553
lhand -32.0404 9.92176
lfingers 7.12502
lthumb -5.2877 39.8358
rfemur -21.6265 6.65127 31.6313
rtibia 40.9724
rfoot -13.1915 -3.91888
rtoes 2.69997
lfemur -1.15838 16.9166 -6.60295
ltibia 111.631
lfoot 20.3191 -5.93592
ltoes 3.78493
119
root 0.423636 17.1472 31.9192 3.0737 -9.21859 -8.23028
lowerback 18.1008 -0.857443 6.08222
upperback 2.12027 0.278962 2.65646
thorax -7.84944 -0.0211406 -0.654639
lowerneck -2.11887 2.65046 -0.299941
upperneck -14.3291 3.15308 -3.40531
head -4.27755 1.71013 -1.18321
rclavicle 1.21849e-014 8.44835e-016
rhumerus -35.8457 9.4664 -77.9015
rradius 86.661
rwrist -3.94766
rhand -32.2578 29.8807
rfingers 7.12502
rthumb -5.49768 -0.0280138
lclavicle 1.21849e-014 8.44835e-016
lhumerus -46.4709 -9.03891 91.3958
lradius 99.2566
lwrist 23.1649
lhand -31.9347 12.3842
lfingers 7.12502
lthumb -5.18572 42.3007
rfemur -20.4338 6.18129 33.0889
rtibia 41.5717
rfoot -14.7478 -4.06145
rtoes 0.134653
lfemur -4.80003 17.849 -3.67341
ltibia 115.503
lfoot 19.3136 -8.40873
ltoes 6.86155
120
root 0.424335 17.1022 32.3799 3.18971 -8.53777 -8.21043
lowerback 18.2376 -0.92227 6.17245
upperback 2.43244 0.20204 2.62625
thorax -7.58721 -0.0505838 -0.722196
lowerneck -3.31356 2.66633 0.142042
upperneck -14.3179 3.14067 -3.84536
head -4.03138 1.69042 -1.38133
rclavicle -6.43565e-015 8.12532e-015
rhumerus -33.2188 9.44774 -77.9347
rradius 88.0023
rwrist -3.36635
rhand -32.41 29.5699
rfingers 7.12502
rthumb -5.64456 -0.334888
lclavicle -6.43565e-015 8.12532e-015
lhumerus -46.6714 -8.07329 91.1435
lradius 98.6098
lwrist 23.8836
lhand -31.7456 15.0247
lfingers 7.12502
lthumb -5.00305 44.9456
rfemur -19.0091 5.13438 32.8915
rtibia 41.7321
rfoot -16.186 -3.89587
rtoes -1.87594
lfemur -8.8111 17.7699 -3.85494
ltibia 118.493
lfoot 17.9087 -9.06013
ltoes 7.37453
121
root 0.413711 17.0617 32.7985 3.66458 -6.78803 -8.17036
lowerback 18.3575 -1.22301 6.25712
upperback 2.13693 -0.136 2.71576
thorax -7.99548 -0.226304 -0.583875
lowerneck -2.95893 2.5302 0.428752
upperneck -14.6295 2.91568 -4.149
head -4.20979 1.58296 -1.54389
rclavicle -1.85118e-015 -3.76448e-015
rhumerus -31.5931 9.31433 -77.8927
rradius 89.4448
rwrist -2.83057
rhand -32.3722 29.4181
rfingers 7.12502
rthumb -5.60808 -0.487722
lclavicle -1.85118e-015 -3.76448e-015
lhumerus -47.5279 -7.50225 91.23
lradius 98.0156
lwrist 24.7397
lhand -33.0892 16.2877
lfingers 7.12502
lthumb -6.30032 46.174
rfemur -18.1737 3.87929 32.8204
rtibia 41.7697
rfoot -17.0734 -4.78424
rtoes -4.54236
lfemur -14.5795 16.4801 -4.767
ltibia 121.433
lfoot 16.7295 -9.21946
ltoes 5.06148
122
root 0.416276 17.0536 33.271 3.47048 -6.39601 -8.64251
lowerback 18.8273 -1.06128 6.78065
upperback 2.17003 0.235761 2.85206
thorax -8.19433 -0.0669244 -0.820313
lowerneck -3.03266 2.33006 0.686309
upperneck -14.4367 2.62402 -4.43256
head -4.12768 1.43588 -1.67203
rclavicle 5.0659e-015 -1.07592e-014
rhumerus -30.3342 8.85566 -77.7517
rradius 91.2176
rwrist -2.14935
rhand -32.4869 29.5591
rfingers 7.12502
rthumb -5.7188 -0.343727
lclavicle 5.0659e-015 -1.07592e-014
lhumerus -48.2451 -7.21776 91.4883
lradius 97.5095
lwrist 25.5466
lhand -34.6924 14.2888
lfingers 7.12502
lthumb -7.84793 44.1231
rfemur -15.9957 3.72885 33.2994
rtibia 41.486
rfoot -17.9661 -5.67533
rtoes -8.30233
lfemur -18.1511 16.3165 -4.57806
ltibia 123.195
lfoot 15.1171 -9.77441
ltoes 3.61825
123
root 0.41394 17.0666 33.7464 3.54596 -5.77897 -8.91203
lowerback 19.3457 -0.869966 6.84806
upperback 1.80136 0.59994 3.09374
thorax -8.86543 0.0862021 -0.680822
lowerneck -3.00364 2.17476 0.754743
upperneck -13.8694 2.41574 -4.62069
head -3.93245 1.33361 -1.72985
rclavicle 7.45443e-015 -9.49197e-015
rhumerus -29.8514 8.5282 -77.5206
rradius 93.2671
rwrist -1.64209
rhand -33.0145 29.7458
rfingers 7.12502
rthumb -6.22822 -0.142684
lclavicle 7.45443e-015 -9.49197e-015
lhumerus -49.5072 -7.0195 92.0235
lradius 97.7738
lwrist 26.4712
lhand -34.4287 12.6525
lfingers 7.12502
lthumb -7.5934 42.4962
rfemur -14.0611 3.52803 33.5685
rtibia 40.9125
rfoot -18.6498 -6.11145
rtoes -10.9522
lfemur -22.2043 15.8148 -4.9529
ltibia 124.372
lfoot 13.7291 -10.0575
ltoes -6.35599
124
root 0.415117 17.0956 34.2356 3.75115 -5.05979 -8.8061
lowerback 19.0811 -0.589188 6.73895
upperback 1.7002 0.932758 3.1355
thorax -8.81366 0.25029 -0.661469
lowerneck -3.76 1.81191 0.836129
upperneck -12.8197 1.96156 -4.67075
head -3.43194 1.08946 -1.71446
rclavicle 1.27719e-014 5.86415e-015
rhumerus -29.0375 7.91752 -77.3152
rradius 95.0393
rwrist -1.44283
rhand -33.7789 30.3539
rfingers 7.12502
rthumb -6.96619 0.488476
lclavicle 1.27719e-014 5.86415e-015
lhumerus -50.105 -7.36827 92.4531
lradius 98.0219
lwrist 26.9959
lhand -33.8011 11.0018
lfingers 7.12502
lthumb -6.98761 40.8665
rfemur -12.087 3.21744 33.4164
rtibia 40.0181
rfoot -18.6541 -6.41948
rtoes -13.9614
lfemur -26.346 14.4773 -6.45871
ltibia 124.735
lfoot 13.1654 -10.155
ltoes -15.6078
125
root 0.419932 17.1384 34.7296 4.1123 -4.58269 -8.95982
lowerback 18.6548 -0.236877 6.95351
upperback 1.58808 1.4068 3.11929
thorax -8.66833 0.471038 -0.920563
lowerneck -4.82667 1.44712 1.09595
upperneck -11.5135 1.52066 -4.62604
head -2.80026 0.833925 -1.69743
rclavicle -2.41523e-014 -4.00551e-014
rhumerus -28.2575 7.31738 -77.2465
rradius 96.6792
rwrist -1.73365
rhand -34.1288 31.1319
rfingers 7.12502
rthumb -7.30393 1.27799
lclavicle -2.41523e-014 -4.00551e-014
lhumerus -50.6256 -7.80985 92.8203
lradius 98.4029
lwrist 27.382
lhand -33.4861 11.5384
lfingers 7.12502
lthumb -6.68348 41.4129
rfemur -10.0523 3.16716 33.514
rtibia 38.8548
rfoot -17.8723 -6.09356
rtoes -15.1431
lfemur -30.2028 13.0375 -7.71551
ltibia 124.453
lfoot 13.0943 -10.6912
ltoes -18.8154
126
root 0.413477 17.1868 35.2169 4.37572 -4.69665 -9.59472
lowerback 18.6874 0.304406 7.33454
upperback 1.31829 2.23084 3.2208
thorax -8.9212 0.838764 -1.23352
lowerneck -5.10981 1.11894 0.95481
upperneck -10.702 1.15254 -4.13682
head -2.48882 0.6344 -1.49323
rclavicle 4.74598e-015 5.00937e-014
rhumerus -27.9504 6.91955 -77.2459
rradius 98.3637
rwrist -2.33271
rhand -34.3488 31.7765
rfingers 7.12502
rthumb -7.51628 1.93
lclavicle 4.74598e-015 5.00937e-014
lhumerus -51.5338 -8.22635 93.2021
lradius 98.8816
lwrist 27.4929
lhand -32.6961 12.0227
lfingers 7.12502
lthumb -5.92084 41.92
rfemur -7.77625 3.84814 34.2187
rtibia 37.4263
rfoot -16.4897 -5.88956
rtoes -15.6906
lfemur -33.4309 12.5738 -7.74029
ltibia 123.736
lfoot 12.2118 -11.8422
ltoes -20.9736
127
root 0.403881 17.2854 35.7321 4.3385 -5.00727 -9.76776
lowerback 18.8466 0.919599 7.2057
upperback 1.18106 3.03649 3.18406
thorax -9.10736 1.21765 -1.41086
lowerneck -5.39963 0.786477 0.495571
upperneck -9.93011 0.809988 -3.25511
head -2.19155 0.452702 -1.11529
rclavicle -6.95746e-015 2.38542e-015
rhumerus -27.5771 6.90812 -77.2024
rradius 100.033
rwrist -3.2702
rhand -34.7554 32.0524
rfingers 7.12502
rthumb -7.90872 2.22036
lclavicle -6.95746e-015 2.38542e-015
lhumerus -52.4073 -8.62128 93.459
lradius 99.5585
lwrist 27.451
lhand -31.0819 11.7215
lfingers 7.12502
lthumb -4.3622 41.6565
rfemur -4.97573 4.85722 34.4739
rtibia 35.6521
rfoot -14.8721 -5.82918
rtoes -15.6307
lfemur -35.7845 11.8449 -8.29813
ltibia 122.163
lfoot 11.003 -12.2058
ltoes -20.9852
128
root 0.416229 17.3796 36.2626 4.23429 -4.74749 -9.89367
lowerback 18.589 1.19765 7.51452
upperback 1.27572 3.4215 3.06136
thorax -8.80538 1.39954 -1.80466
lowerneck -5.6381 0.577333 0.160561
upperneck -9.71196 0.598325 -2.54702
head -2.08286 0.342439 -0.828747
rclavicle -2.15184e-014 1.90833e-014
rhumerus -26.9119 7.1852 -77.193
rradius 101.555
rwrist -3.92838
rhand -35.4168 32.1319
rfingers 7.12502
rthumb -8.54698 2.32484
lclavicle -2.15184e-014 1.90833e-014
lhumerus -52.8403 -8.83848 93.5141
lradius 100.287
lwrist 27.626
lhand -29.9244 11.6732
lfingers 7.12502
lthumb -3.24449 41.6283
rfemur -2.04624 5.34028 34.6704
rtibia 33.6329
rfoot -12.8152 -5.7762
rtoes -16.3526
lfemur -38.0696 9.94727 -9.14276
ltibia 120.24
lfoot 10.3467 -11.9344
ltoes -19.2103
129
root 0.440268 17.465 36.7925 4.22489 -4.19537 -10.4549
lowerback 18.0881 1.29955 8.59045
upperback 1.48611 3.69199 2.9487
thorax -8.19885 1.51703 -2.56908
lowerneck -6.1312 0.405318 -0.10307
upperneck -9.67364 0.432696 -1.82574
head -1.98823 0.253872 -0.554112
rclavicle 3.5657e-014 -1.88845e-015
rhumerus -26.4625 7.14359 -77.3727
rradius 103.086
rwrist -4.36125
rhand -35.8869 32.7886
rfingers 7.12502
rthumb -9.00068 3.0006
lclavicle 3.5657e-014 -1.88845e-015
lhumerus -52.9547 -9.18216 93.4549
lradius 100.916
lwrist 28.0378
lhand -30.6952 12.1555
lfingers 7.12502
lthumb -3.98879 42.0979
rfemur 0.736815 5.45271 35.2847
rtibia 31.3797
rfoot -10.325 -5.39047
rtoes -18.1264
lfemur -40.4385 7.9134 -9.31301
ltibia 118.137
lfoot 9.86717 -11.7852
ltoes -16.8248
